<svg id="Layer_1" data-name="Layer 1" xmlns="http://www.w3.org/2000/svg" xmlns:xlink="http://www.w3.org/1999/xlink" viewBox="0 0 623.27 199.22"><defs><style>.cls-1{fill:url(#linear-gradient);}.cls-2{fill:url(#linear-gradient-2);}.cls-3{fill:url(#linear-gradient-3);}.cls-4{fill:url(#linear-gradient-4);}.cls-5{fill:url(#linear-gradient-5);}.cls-6{fill:url(#linear-gradient-11);}.cls-7{fill:url(#linear-gradient-12);}.cls-8{fill:url(#linear-gradient-13);}</style><linearGradient id="linear-gradient" x1="-103.62" y1="67.71" x2="1298.24" y2="67.71" gradientUnits="userSpaceOnUse"><stop offset="0" stop-color="#f8f190"/><stop offset="0.18" stop-color="#c2912c"/><stop offset="0.55" stop-color="#e7d371"/><stop offset="0.83" stop-color="#d1ac48"/></linearGradient><linearGradient id="linear-gradient-2" x1="-103.62" y1="51.5" x2="1298.24" y2="51.5" xlink:href="#linear-gradient"/><linearGradient id="linear-gradient-3" x1="-103.62" y1="17.89" x2="1298.24" y2="17.89" xlink:href="#linear-gradient"/><linearGradient id="linear-gradient-4" x1="-103.62" y1="59.11" x2="1298.24" y2="59.11" xlink:href="#linear-gradient"/><linearGradient id="linear-gradient-5" x1="-103.62" y1="61.39" x2="1298.24" y2="61.39" xlink:href="#linear-gradient"/><linearGradient id="linear-gradient-11" x1="-103.62" y1="144.68" x2="1298.24" y2="144.68" xlink:href="#linear-gradient"/><linearGradient id="linear-gradient-12" x1="-103.62" y1="149.87" x2="1298.24" y2="149.87" xlink:href="#linear-gradient"/><linearGradient id="linear-gradient-13" x1="-103.62" y1="61.47" x2="1298.24" y2="61.47" xlink:href="#linear-gradient"/></defs><title>Artboard 2</title><path class="cls-1" d="M193.93,43.57a26.57,26.57,0,0,0,.9,2.82A33.17,33.17,0,0,0,202.5,58a0,0,0,0,1,0,0,79.16,79.16,0,0,0,13.14,10.31c9.23,6.1,19.13,11.05,27.54,17.83a42.22,42.22,0,0,1,10.13,11.14c.15.23.3.46.45.71a31.72,31.72,0,0,1,3.28,8.26,22.84,22.84,0,0,1-.83,2.15,18.4,18.4,0,0,1-7.51,8.2Q243.31,120,234.31,120q-12,0-20.34-6.66T202.72,93.62h-1.36v29.65h1.36a36,36,0,0,1,1.41-5.22,2.16,2.16,0,0,1,2.22-1.21,12.64,12.64,0,0,1,3.28.81A68.15,68.15,0,0,0,221,122,48.3,48.3,0,0,0,234,123.59q11.66,0,19.54-4.49a35.05,35.05,0,0,0,4.77-3.27v0a26.86,26.86,0,0,0,3.3-3.12c-.05-.37-.12-.78-.2-1.23l-.08-.39c-.24-1.28-.56-2.81-1-4.49a35,35,0,0,0-2-6.26,32.44,32.44,0,0,0-1.91-3.81c0-.1-.13-.2-.18-.3L256,96c-.4-.65-.78-1.28-1.23-1.89A47,47,0,0,0,245,83.95a128.79,128.79,0,0,0-13.86-9.3c-4.74-2.83-9.55-5.5-14.2-8.35a77.71,77.71,0,0,1-13-9.7c-.18-.18-.37-.37-.53-.56a30.22,30.22,0,0,1-7.52-11.59,7.61,7.61,0,0,1-.41-1.28,31.38,31.38,0,0,1-.18-16,68.12,68.12,0,0,1,5.87-15.33A61.49,61.49,0,0,0,194.45,27,32.4,32.4,0,0,0,193.93,43.57Z"/><path class="cls-2" d="M267.59,67.48c-.13-.16-.25-.32-.39-.47a62.38,62.38,0,0,0-9.27-8.81c-6.86-5.54-14.23-10.3-20.41-16.35a34.18,34.18,0,0,1-7.61-10.36A26.82,26.82,0,0,1,228,25.24a28.71,28.71,0,0,1-.41-6.47,28.75,28.75,0,0,0,0,6.59c0,.05,0,.09,0,.15a26.3,26.3,0,0,0,1.59,6.29,35.11,35.11,0,0,0,7.26,11.09c6.1,6.51,13.36,11.59,20,17.19a61.3,61.3,0,0,1,9,9.1c.16.21.32.42.48.65a22.52,22.52,0,0,1,4.48,10.54,19.44,19.44,0,0,1,.14,3.85C274.23,73.93,267.59,67.48,267.59,67.48Z"/><path class="cls-3" d="M207.34,26.51a19.64,19.64,0,0,0,1.17,1.79,39.12,39.12,0,0,0,6.93,7.47,28.34,28.34,0,0,1-.91-7.32,26.91,26.91,0,0,1,2.9-12.7A22,22,0,0,1,225.62,7a23,23,0,0,1,12.13-3.21q10.44,0,16.84,6.48a25.7,25.7,0,0,1,7.51,15.06h1.29V0H262.1c-.63,2.42-1.84,3.63-3.61,3.63A7.68,7.68,0,0,1,255,3,51.75,51.75,0,0,0,239,.33,36.45,36.45,0,0,0,220.65,5,32.89,32.89,0,0,0,208.11,17.2a33.86,33.86,0,0,0-2.61,5.64c.24.55.46,1.11.72,1.63C206.57,25.18,206.95,25.85,207.34,26.51Z"/><path class="cls-4" d="M267.39,81a28.88,28.88,0,0,0-3.23-7.39,36,36,0,0,0-5.72-7.11A73.83,73.83,0,0,0,245,56.5c-8.4-5.15-17.17-9.55-25.09-15.16a25.5,25.5,0,0,1,1.59-11c0-.1.08-.18.12-.28a55.94,55.94,0,0,1,6-11.27A50.29,50.29,0,0,0,220.73,30c-.16.41-.35.83-.5,1.26a26.36,26.36,0,0,0-1.77,9L217,39.2l-.55-.43c-.61-.46-1.21-.94-1.79-1.46a40.84,40.84,0,0,1-7.49-8,21.2,21.2,0,0,1-1.26-1.92c-.41-.7-.81-1.41-1.18-2.14a34.71,34.71,0,0,1-3.63-13.39,33.52,33.52,0,0,0,3.35,14.52c.22.48.46,1,.73,1.42.41.75.85,1.46,1.31,2.17a42.94,42.94,0,0,0,7.31,8.47c.73.68,1.48,1.33,2.24,2s1.44,1.16,2.19,1.71l.3.23c0,.08,0,.18,0,.27s0,.36.07.56a25.44,25.44,0,0,0,5.27,12.35A61.8,61.8,0,0,0,233.25,65c6.71,5.74,14,10.69,19.89,16.86a39.7,39.7,0,0,1,4.64,5.74l1.78,3a40.28,40.28,0,0,1,4.1,15.8v0c4-7.44,4.47-12.66,4.47-12.66a37.71,37.71,0,0,0,.33-5,31,31,0,0,0-.38-4.62A25.44,25.44,0,0,0,267.39,81Zm-2.72,15.13A26.76,26.76,0,0,0,263.06,91a30.65,30.65,0,0,0-3.83-6.6,38.81,38.81,0,0,0-4-4.56c-6.35-6.4-13.69-11.29-20.45-16.71a62.26,62.26,0,0,1-9.3-8.9,25.06,25.06,0,0,1-4.91-9.1c-.13-.51-.25-1-.35-1.54,7.56,5.5,15.78,9.93,23.45,14.93a82.24,82.24,0,0,1,12.81,9.93c.43.43.86.86,1.26,1.33a31.43,31.43,0,0,1,4.92,7,23.52,23.52,0,0,1,1.94,5A29.69,29.69,0,0,1,264.67,96.18Z"/><path class="cls-5" d="M338.33,122.78h-17L305.88,63.19v56.42h4.37v3.17H287.48v-3.17h4.37V3.17h-4.37V0h22.77V3.17h-4.37V56.34L325.15,3.17h-4.37V0h13.1V3.17h-4.37L314.45,44.78l19.43,74.83h4.45Z"/><path class="cls-5" d="M388.25,3.17h-4.37l-13.1,69.95v46.49h4.37v3.17H352.37v-3.17h4.37V73.12L344.41,3.17H340V0h22.43V3.17h-4.37l10.36,61,11.22-61h-4.37V0h12.93Z"/><path class="cls-5" d="M463.68,52.31q0,7.37-6.16,12.63a22.16,22.16,0,0,1-14.9,5.27h-6.08v49.4h4.37v3.17H418.13v-3.17h4.37V3.17h-4.37V0h24.49a22.17,22.17,0,0,1,14.9,5.27q6.16,5.26,6.16,12.63Zm-14,7.71V10.19a6.77,6.77,0,0,0-2.05-5,6.77,6.77,0,0,0-5-2.05h-6.08V67h6.08a7,7,0,0,0,7-7Z"/><path class="cls-5" d="M514.53,122.78H491.76v-3.17h4.37L493,84H480.37l-3.51,35.62h4.37v3.17H468v-3.17h4.37L484.74,0h14l11.39,119.61h4.37ZM492.79,80.91,487,14.56l-6.42,66.35Z"/><path class="cls-5" d="M568,122.78h-6.08q-12.33,0-12.33-12.84V66.53a7,7,0,0,0-7-7h-6.08v60.1h4.37v3.17H518v-3.17h4.37V3.17H518V0h24.49a22.17,22.17,0,0,1,14.9,5.27q6.16,5.26,6.16,12.63V41.61q0,11.48-12.24,16.27Q563.59,63,563.6,74.23V114.9q0,4.71,4,4.71H568ZM549.55,49.32V10.19a6.77,6.77,0,0,0-2.05-5,6.76,6.76,0,0,0-5-2.05h-6.08V56.34h6.08a7,7,0,0,0,7-7Z"/><path class="cls-5" d="M623.27,122.78h-17L590.82,63.19v56.42h4.37v3.17H572.41v-3.17h4.37V3.17h-4.37V0h22.77V3.17h-4.37V56.34L610.09,3.17h-4.37V0h13.1V3.17h-4.37L599.38,44.78l19.43,74.83h4.45Z"/><path class="cls-6" d="M192.61,90.13a56.25,56.25,0,0,0-5,20.45,90.94,90.94,0,0,0,.35,14,62.22,62.22,0,0,0,4.56,17.7A46.61,46.61,0,0,0,204.8,159a79.6,79.6,0,0,0,17.11,11.45A103.8,103.8,0,0,0,243.74,178c6.4,1.5,25.82,4.25,48.76.85,15.27-2.26,35.44-7.63,47.06-11,11.07-3.25,23.78-7.56,31.6-10.19,16.18-5.45,40.73-14.89,68.89-17.5a277,277,0,0,1,87.26,6.12c49.72,11.89,74.56,27.27,96,39.41a509.55,509.55,0,0,0-68-27.18c-20.39-6.37-35.92-7.64-53-9.68-19.2-2.29-39.52-1.46-55.94.26a228.14,228.14,0,0,0-29.09,4.67,249.78,249.78,0,0,0-35.34,11.55c-14.51,5.82-30,12.76-46.07,18.09-23.85,7.88-46.87,14.08-61.47,15.21-15.29,1.19-31.87,1.26-48-5.1-16.82-6.63-32-18.53-38.31-31.88a46.49,46.49,0,0,1-3.44-9.33,55.54,55.54,0,0,1-1.66-9.08,79.23,79.23,0,0,1-.5-10.51c.09-3.2.38-6.6.71-9.91C184.56,108.56,188.85,96.88,192.61,90.13Z"/><path class="cls-7" d="M197.14,127.71s4.12,32.71,45.77,41.52a151,151,0,0,0,42.82,2.17,139.71,139.71,0,0,0,25.47-4.32c10.75-3,19.23-6.06,22.43-7.24,2.85-1.06,7-2.47,10-3.62s14.25-4.56,17.06-5.14a122.72,122.72,0,0,1,20.45-3.74,74.58,74.58,0,0,0-7.5-.11,129.14,129.14,0,0,0-16.23,2,264.71,264.71,0,0,0-26.17,7.43c-5.94,2-16.44,5-23.44,6.49A155.39,155.39,0,0,1,278.15,166c-10.16-.2-23.88-.66-34.5-3.43s-21.88-6.76-29.05-12.62S199.65,134.71,197.14,127.71Z"/><path class="cls-8" d="M52.64,36.86H39.69V3.17H33.35V119.76h4.37v3.17H14.92v-3.17h4.37V3.17H12.94V36.86H0V0H52.64Z"/><path class="cls-8" d="M103.56,3.17H99.19V122.93H88L66.7,27.26v92.5h4.37v3.17H58v-3.17h4.37V3.17H58V0H75.7L94.81,85.38V3.17H90.44V0h13.12Z"/><path class="cls-8" d="M158.85,122.93h-6.09q-12.34,0-12.34-12.86V66.61a7,7,0,0,0-7-7h-6.09v60.18h4.37v3.17h-22.8v-3.17h4.37V3.17h-4.37V0h24.52a22.19,22.19,0,0,1,14.92,5.27q6.17,5.27,6.17,12.64V41.66q0,11.49-12.26,16.29,12.26,5.14,12.26,16.37V115q0,4.72,4,4.72h.34ZM140.42,49.38V10.2a6.77,6.77,0,0,0-2.06-5,6.77,6.77,0,0,0-5-2.06h-6.09V56.41h6.09a7,7,0,0,0,7-7Z"/></svg>