<svg width="24" height="24" viewBox="0 0 24 24" fill="none" xmlns="http://www.w3.org/2000/svg">
<path d="M12 0C5.38605 0 0 5.38605 0 12C0 18.614 5.38605 24 12 24C18.614 24 24 18.614 24 12C24 5.38605 18.614 0 12 0ZM12 5.63721C13.4233 5.63721 14.5954 6.8093 14.5954 8.23256C14.5954 8.67907 14.2047 9.06977 13.7581 9.06977C13.2837 9.06977 12.9209 8.70698 12.9209 8.23256C12.9209 7.73023 12.5023 7.31163 12 7.31163C11.4977 7.31163 11.0791 7.73023 11.0791 8.23256C11.0791 8.70698 10.7163 9.06977 10.2419 9.06977C9.76744 9.06977 9.40465 8.70698 9.40465 8.23256C9.40465 6.8093 10.5767 5.63721 12 5.63721ZM18.7535 11.7488L17.386 16.7163C17.2465 17.6372 16.4651 18.3628 15.5163 18.3628H8.48372C7.53488 18.3628 6.75349 17.6372 6.69767 16.6884L5.33023 11.7488C5.30233 11.6651 5.30233 11.6093 5.30233 11.5256C5.30233 10.5209 6.11163 9.73954 7.11628 9.71163H16.9674C17.9721 9.71163 18.7814 10.5209 18.7814 11.5256C18.7814 11.6093 18.7814 11.6651 18.7535 11.7488Z" fill="white"/>
</svg>
